{
  "title": "Need.For.Speed.2014.HD-TS.XVID.AC3.HQ.Hive-CM8",
  "uid": 9992349,
  "size": 1956368194,
  "categoryP": "video",
  "categoryS": "movies",
  "magnet": "?xt=urn:btih:88030af6532804a4cbbe25bad6fee7a6b3b09c95&amp;dn=Need.For.Speed.2014.HD-TS.XVID.AC3.HQ.Hive-CM8&amp;tr=udp%3A%2F%2Ftracker.openbittorrent.com%3A80&amp;tr=udp%3A%2F%2Fopen.demonii.com%3A1337&amp;tr=udp%3A%2F%2Ftracker.coppersurfer.tk%3A6969&amp;tr=udp%3A%2F%2Fexodus.desync.com%3A6969",
  "seeders": 204,
  "leechers": 22,
  "uploader": "xxxlavalxxx",
  "files": -1,
  "time": 1397865518,
  "description": " &lt;a href=&quot;\nhttp://www.imdb.com/title/tt2369135/&quot; rel=&quot;nofollow&quot; target=&quot;_NEW&quot;&gt;\nhttp://www.imdb.com/title/tt2369135/&lt;/a&gt;\n\n\n\nFresh from prison, a street racer who was framed by a wealthy business associate joins a cross country race with revenge in mind. His ex-partner, learning of the plan, places a massive bounty on his head as the race begins.\n\nDirector: Scott Waugh\nWriters: George Gatins (screenplay), George Gatins (story)\nStars: Aaron Paul, Dominic Cooper, Scott Mescudi \nGenres: Action | Crime | Drama | Thriller\nCountry: USA\nLanguage: English\n\n\nNeed.For.Speed.2014.HD-TS.XVID.AC3.HQ.Hive-CM8\n\nThx Hive\n\nCM8 Doing It Right The First Time\n\nSources: \n\nVideo:Original Chinese HDCAM + Naked Man Scene from Spanish Cam\nAudio: Line (Echo)\nthx\n\nNotes:\n\nfor sources so far we have seen:\na) smy release with chinese subs all over \nb)  diy release with better video but watermarks all over\nc) that &quot;so called 1080p cam&quot; which looks washed out and is stuttering like hell on all action scenes,\nwhich makes that movie experience unenjoyable since 80% are action scenes in this movie\ndont know what happened with that one, but if i had to guess it got upscaled from that rmvb file that had only 15frames.\n\nfinally I got the real source file which is perfect, no framerate issues, no watermarks,no jerky video, no additional foreign subs\nall very nice - a bit dark perhaps on night scenes but i think i got that covered,\nsome occasional screen translation subs were still in the video hardcoded, left them in it no need for blurring or cropping them\n\nEncode:\n\nadded brightness,sharpness,contrast,saturation and fixed rgb without going over\n\nnoticed like in all chinese cams the nudity scene got cut out, what a bummer, that belongs into the video\nso i got the spanish cam which was ok-ish but had the nudity scene in it, \ni cut out that 20sec scene and placed it into my video and used the audio from Mr. Bootlegger for it (thx btw)\n\nAudio is from Echo out of the Millenium release, which was very nice\ndid the usual with it, ran it through cleaning and synced it back to my video\n\nall in all its perfect now and will do me till retail\nalready watched my version, i really enjoyed the movie its great fun like this\n\n\nVideo: 720x304 @bitrate 1700 2pass\nAudio: English AC3 2.0 Stereo Line\nSample: yes included\n\n\n &lt;a href=&quot;\nhttp://www.imdb.com/title/tt2369135/&quot; rel=&quot;nofollow&quot; target=&quot;_NEW&quot;&gt;\nhttp://www.imdb.com/title/tt2369135/&lt;/a&gt;\n\n\nGeneral\nComplete name                  : Need.For.Speed.2014.HD-TS.XVID.AC3.HQ.Hive-CM8.avi\nFormat                         : AVI\nFormat/Info                    : Audio Video Interleave\nFile size                      : 1.80 GiB\nDuration                       : 2h 10mn\nOverall bit rate               : 1 967 Kbps\nWriting application            : Nandub v1.0rc2\nWriting library                : Nandub build 1853/release\n\nVideo\nID                             : 0\nFormat                         : MPEG-4 Visual\nFormat profile                 : Advanced Simple@L5\nFormat settings, BVOP          : 2\nFormat settings, QPel          : Yes\nFormat settings, GMC           : No warppoints\nFormat settings, Matrix        : Default (H.263)\nMuxing mode                    : Packed bitstream\nCodec ID                       : XVID\nCodec ID/Hint                  : XviD\nDuration                       : 2h 10mn\nBit rate                       : 1 699 Kbps\nWidth                          : 720 pixels\nHeight                         : 304 pixels\nDisplay aspect ratio           : 2.35:1\nFrame rate                     : 29.970 fps\nColor space                    : YUV\nChroma subsampling             : 4:2:0\nBit depth                      : 8 bits\nScan type                      : Progressive\nCompression mode               : Lossy\nBits/(Pixel*Frame)             : 0.259\nStream size                    : 1.55 GiB (86%)\nWriting library                : XviD 1.2.1 (UTC 2008-12-04)\n\nAudio\nID                             : 1\nFormat                         : AC-3\nFormat/Info                    : Audio Coding 3\nMode extension                 : CM (complete main)\nFormat settings, Endianness    : Big\nCodec ID                       : 2000\nDuration                       : 2h 10mn\nBit rate mode                  : Constant\nBit rate                       : 256 Kbps\nChannel(s)                     : 2 channels\nChannel positions              : Front: L R\nSampling rate                  : 48.0 KHz\nBit depth                      : 16 bits\nCompression mode               : Lossy\nDelay relative to video        : 14ms\nStream size                    : 240 MiB (13%)\nAlignment                      : Split accross interleaves\nInterleave, duration           : 33 ms (1.00 video frame)\nInterleave, preload duration   : 500 ms\n\n\nscreens\n &lt;a href=&quot;\nhttp://i.imgur.com/oyOg5a9.png&quot; rel=&quot;nofollow&quot; target=&quot;_NEW&quot;&gt;\nhttp://i.imgur.com/oyOg5a9.png&lt;/a&gt; &lt;a href=&quot;\nhttp://i.imgur.com/O2F25W6.png&quot; rel=&quot;nofollow&quot; target=&quot;_NEW&quot;&gt;\nhttp://i.imgur.com/O2F25W6.png&lt;/a&gt; &lt;a href=&quot;\nhttp://i.imgur.com/L6u9xG8.png&quot; rel=&quot;nofollow&quot; target=&quot;_NEW&quot;&gt;\nhttp://i.imgur.com/L6u9xG8.png&lt;/a&gt; &lt;a href=&quot;\nhttp://i.imgur.com/RJqzRVO.png&quot; rel=&quot;nofollow&quot; target=&quot;_NEW&quot;&gt;\nhttp://i.imgur.com/RJqzRVO.png&lt;/a&gt; &lt;a href=&quot;\nhttp://i.imgur.com/dehYFDQ.png&quot; rel=&quot;nofollow&quot; target=&quot;_NEW&quot;&gt;\nhttp://i.imgur.com/dehYFDQ.png&lt;/a&gt; &lt;a href=&quot;\nhttp://i.imgur.com/tfjoUiA.png&quot; rel=&quot;nofollow&quot; target=&quot;_NEW&quot;&gt;\nhttp://i.imgur.com/tfjoUiA.png&lt;/a&gt; &lt;a href=&quot;\nhttp://i.imgur.com/23qPrsN.png&quot; rel=&quot;nofollow&quot; target=&quot;_NEW&quot;&gt;\nhttp://i.imgur.com/23qPrsN.png&lt;/a&gt;",
  "parsed": {
    "xt": "urn:btih:88030af6532804a4cbbe25bad6fee7a6b3b09c95",
    "dn": "Need.For.Speed.2014.HD-TS.XVID.AC3.HQ.Hive-CM8",
    "tr": [
      "udp://exodus.desync.com:6969",
      "udp://open.demonii.com:1337",
      "udp://tracker.coppersurfer.tk:6969",
      "udp://tracker.openbittorrent.com:80"
    ],
    "infoHash": "88030af6532804a4cbbe25bad6fee7a6b3b09c95",
    "infoHashBuffer": {
      "type": "Buffer",
      "data": [
        136,
        3,
        10,
        246,
        83,
        40,
        4,
        164,
        203,
        190,
        37,
        186,
        214,
        254,
        231,
        166,
        179,
        176,
        156,
        149
      ]
    },
    "name": "Need.For.Speed.2014.HD-TS.XVID.AC3.HQ.Hive-CM8",
    "announce": [
      "udp://exodus.desync.com:6969",
      "udp://open.demonii.com:1337",
      "udp://tracker.coppersurfer.tk:6969",
      "udp://tracker.openbittorrent.com:80"
    ],
    "urlList": []
  },
  "previous": 43,
  "peers": 115,
  "last_updated": "2016-12-27T06:02:25.410Z"
}